{"title":"80.Millions.2011.DVDRip.AC3.HORiZON-ArtSubs","uid":7880624,"size":1467570324,"categoryP":"video","categoryS":"movies","magnet":"?xt=urn:btih:1ccc3343e2b294ea53490fdc131b019b6ffa5bf0&amp;dn=80.Millions.2011.DVDRip.AC3.HORiZON-ArtSubs&amp;tr=udp%3A%2F%2Ftracker.openbittorrent.com%3A80&amp;tr=udp%3A%2F%2Fopen.demonii.com%3A1337&amp;tr=udp%3A%2F%2Ftracker.coppersurfer.tk%3A6969&amp;tr=udp%3A%2F%2Fexodus.desync.com%3A6969","seeders":1,"leechers":0,"uploader":"lletaif","files":2,"time":1354483497,"description":"Plot: A film about the struggle against communism in WrocÅ‚aw, 1981. The events depicted in the film took place ten days before martial law was introduced in Poland. WÅ‚adysÅ‚aw Frasyniuk, then leader of the regional Solidarity, along with four colleagues, withdrew 80 million of the organization's money out of the bank. The money was later used to build the underground resistance movement. Official Poland Foreign Language Academy Awards 2013.\n\n\nDirector:\nWaldemar Krzystek\n\nWriters:\nWaldemar Krzystek, Krzysztof Konopka\n\nStars:\nFilip Bobek, Marcin Bosak and Wojciech Solarz\n\nLanguage: Polish\n\nSubtitles: English\n\nImdb:  &lt;a href=&quot;\nhttp://www.imdb.com/title/tt2056501/&quot; rel=&quot;nofollow&quot; target=&quot;_NEW&quot;&gt;\nhttp://www.imdb.com/title/tt2056501/&lt;/a&gt;\n\nRip Specs:\n\nGeneral\nComplete name                    : L:80.Millions.2011.DVDRip.AC3.HORiZON-ArtSubs80.Millions.2011.DVDRip.AC3.HORiZON-ArtSubs.avi\nFormat                           : AVI\nFormat/Info                      : Audio Video Interleave\nFile size                        : 1.37 GiB\nDuration                         : 1h 42mn\nOverall bit rate                 : 1 909 Kbps\n\nVideo\nID                               : 0\nFormat                           : MPEG-4 Visual\nFormat profile                   : Advanced Simple@L5\nFormat settings, BVOP            : 1\nFormat settings, QPel            : No\nFormat settings, GMC             : No warppoints\nFormat settings, Matrix          : Custom\nCodec ID                         : XVID\nCodec ID/Hint                    : XviD\nDuration                         : 1h 42mn\nBit rate                         : 1 454 Kbps\nWidth                            : 720 pixels\nHeight                           : 320 pixels\nDisplay aspect ratio             : 2.25:1\nFrame rate                       : 25.000 fps\nColor space                      : YUV\nChroma subsampling               : 4:2:0\nBit depth                        : 8 bits\nScan type                        : Progressive\nCompression mode                 : Lossy\nBits/(Pixel*Frame)               : 0.252\nStream size                      : 1.04 GiB (76%)\nWriting library                  : XviD 1.2.1 (UTC 2008-12-04)\n\nAudio\nID                               : 1\nFormat                           : AC-3\nFormat/Info                      : Audio Coding 3\nMode extension                   : CM (complete main)\nCodec ID                         : 2000\nDuration                         : 1h 42mn\nBit rate mode                    : Constant\nBit rate                         : 448 Kbps\nChannel(s)                       : 6 channels\nChannel positions                : Front: L C R, Side: L R, LFE\nSampling rate                    : 48.0 KHz\nBit depth                        : 16 bits\nCompression mode                 : Lossy\nStream size                      : 328 MiB (23%)\nAlignment                        : Split accross interleaves\nInterleave, duration             : 96 ms (2.40 video frames)\nInterleave, preload duration     : 96 ms\nLanguage                         : Polish\n\n","torrent":{"xt":"urn:btih:1ccc3343e2b294ea53490fdc131b019b6ffa5bf0","amp;dn":"80.Millions.2011.DVDRip.AC3.HORiZON-ArtSubs","amp;tr":["udp%3A%2F%2Ftracker.openbittorrent.com%3A80","udp%3A%2F%2Fopen.demonii.com%3A1337","udp%3A%2F%2Ftracker.coppersurfer.tk%3A6969","udp%3A%2F%2Fexodus.desync.com%3A6969"],"infoHash":"1ccc3343e2b294ea53490fdc131b019b6ffa5bf0","infoHashBuffer":{"type":"Buffer","data":[28,204,51,67,226,178,148,234,83,73,15,220,19,27,1,155,111,250,91,240]},"announce":[],"urlList":[]}}